<svg width="186" height="71" viewBox="0 0 186 71" fill="none" xmlns="http://www.w3.org/2000/svg">
<path d="M100.514 49C98.336 49 96.5267 48.6089 95.0935 47.82C93.6745 47.0173 92.6386 45.947 92 44.6092L94.8381 41.2887H95.2638C95.7321 42.3727 96.399 43.2234 97.2504 43.8408C98.1018 44.4651 99.0952 44.7739 100.23 44.7739C101.493 44.7739 102.43 44.4171 103.04 43.7036C103.664 42.9901 103.977 41.8307 103.977 40.2184V24H109V40.3008C109 43.2851 108.298 45.4805 106.9 46.8869C105.495 48.3002 103.366 49 100.514 49Z" fill="#C0B7E8"/>
<path d="M126.029 49C123.653 49 121.565 48.5536 119.77 47.6472C117.969 46.7273 116.555 45.3406 115.522 43.4805C114.502 41.6069 114 39.28 114 36.5C114 33.7267 114.502 31.4067 115.522 29.5465C116.555 27.6729 117.969 26.2863 119.77 25.3799C121.565 24.46 123.653 24 126.029 24C128.383 24 130.457 24.4532 132.258 25.3528C134.053 26.2592 135.459 27.6458 136.478 29.5195C137.49 31.3999 138 33.7267 138 36.5C138 39.28 137.49 41.6069 136.478 43.4805C135.459 45.3609 134.053 46.7476 132.258 47.6472C130.457 48.5536 128.383 49 126.029 49ZM126.029 44.8333C128.211 44.8333 129.876 44.1772 131.024 42.8582C132.172 41.5257 132.746 39.4085 132.746 36.5C132.746 33.5982 132.172 31.4878 131.024 30.1688C129.876 28.8363 128.211 28.1667 126.029 28.1667C123.825 28.1667 122.139 28.8363 120.976 30.1688C119.828 31.4878 119.254 33.5982 119.254 36.5C119.254 39.4085 119.828 41.5257 120.976 42.8582C122.139 44.1772 123.825 44.8333 126.029 44.8333Z" fill="#C0B7E8"/>
<path d="M154.065 49H148.964V39.1726L140 24H145.505L151.414 33.8274H151.846L157.639 24H163L154.065 39.1726V49Z" fill="#C0B7E8"/>
<path d="M169.101 49H164L171.455 36.1381L164.364 24H169.661L174.874 32.9644H175.294L180.619 24H185.636L178.545 36.1381L186 49H180.731L175.126 39.3675H174.706L169.101 49Z" fill="#F0F0F0"/>
<mask id="mask0_9_61" style="mask-type:luminance" maskUnits="userSpaceOnUse" x="0" y="0" width="32" height="71">
<path d="M0.196777 0.470337H31.6207V70.0678H0.196777V0.470337Z" fill="white"/>
</mask>
<g mask="url(#mask0_9_61)">
<path d="M30.7377 0.476685V70.0614C27.8614 69.8644 25.0862 69.3178 22.4433 68.4661C12.0486 65.1165 3.78574 57.0318 0.196777 46.7542L8.47852 44.053C10.8754 50.7902 15.9592 56.25 22.4433 59.1547V11.3771C20.0906 12.4322 17.9271 13.8241 16.0034 15.4894L10.3203 8.8983C13.821 5.86652 17.9271 3.52118 22.4433 2.06567C25.0862 1.21397 27.8614 0.673717 30.7377 0.476685Z" fill="#C0B7E8"/>
</g>
<mask id="mask1_9_61" style="mask-type:luminance" maskUnits="userSpaceOnUse" x="34" y="0" width="33" height="71">
<path d="M34.8501 0.470337H66.8859V70.0678H34.8501V0.470337Z" fill="white"/>
</mask>
<g mask="url(#mask1_9_61)">
<path d="M66.8859 44.2437C66.1038 47.1865 64.9495 49.9767 63.4736 52.5572C61.8336 55.411 59.8089 58.017 57.4625 60.2924L51.5398 53.911C53.8105 51.6801 55.6712 49.036 57.0084 46.0996L51.6092 40.7034L44.3303 47.9809V68.3136C41.6938 69.2034 38.9122 69.7881 36.0297 70.0233V44.5424L44.3303 36.2479L45.7432 34.8369L36.0297 25.1377V0.508484C38.9122 0.743653 41.6938 1.3284 44.3303 2.21823V21.6992L51.6092 28.9767L56.7372 23.8538C55.4189 21.1335 53.6402 18.6801 51.5083 16.589L57.4247 10.2076C59.6386 12.3432 61.5687 14.7776 63.1582 17.4407C64.672 19.9767 65.8704 22.7225 66.703 25.6208L57.4751 34.8369L59.3106 36.6737L66.8859 44.2437Z" fill="#C0B7E8"/>
</g>
</svg>
